<?xml version="1.0" encoding="UTF-8"?>
<svg width="668px" height="277px" viewBox="0 0 668 277" version="1.1" xmlns="http://www.w3.org/2000/svg" xmlns:xlink="http://www.w3.org/1999/xlink">
    <!-- Generator: Sketch 42 (36781) - http://www.bohemiancoding.com/sketch -->
    <title>code-service</title>
    <desc>Created with Sketch.</desc>
    <defs></defs>
    <g id="Page-1" stroke="none" stroke-width="1" fill="none" fill-rule="evenodd">
        <g id="Desktop-HD" transform="translate(-606.000000, -1106.000000)">
            <g id="code-service" transform="translate(606.000000, 1106.000000)">
                <rect id="Rectangle-2" fill="#EA6666" x="0" y="0" width="217" height="21"></rect>
                <rect id="Rectangle-2-Copy-16" fill="#EA6666" x="0" y="211" width="217" height="21"></rect>
                <rect id="Rectangle-2-Copy-8" fill="#92CC6E" x="0" y="108" width="162" height="21"></rect>
                <rect id="Rectangle-2-Copy-4" fill="#4A9ED9" x="0" y="54" width="124" height="21"></rect>
                <rect id="Rectangle-2-Copy-17" fill="#4A9ED9" x="0" y="256" width="124" height="21"></rect>
                <rect id="Rectangle-2-Copy-9" fill="#4A9ED9" x="0" y="162" width="264" height="21"></rect>
                <rect id="Rectangle-2-Copy" fill="#5B5B5B" x="257" y="0" width="169" height="21"></rect>
                <rect id="Rectangle-2-Copy-18" fill="#5B5B5B" x="257" y="211" width="169" height="21"></rect>
                <rect id="Rectangle-2-Copy-10" fill="#4A9ED9" x="189" y="108" width="237" height="21"></rect>
                <rect id="Rectangle-2-Copy-5" fill="#E96666" x="162" y="54" width="264" height="21"></rect>
                <rect id="Rectangle-2-Copy-19" fill="#E96666" x="162" y="256" width="264" height="21"></rect>
                <rect id="Rectangle-2-Copy-11" fill="#E96666" transform="translate(348.000000, 172.500000) scale(-1, 1) translate(-348.000000, -172.500000) " x="303" y="162" width="90" height="21"></rect>
                <rect id="Rectangle-2-Copy-2" fill="#92CC6E" x="466" y="0" width="72" height="21"></rect>
                <rect id="Rectangle-2-Copy-20" fill="#92CC6E" x="466" y="211" width="72" height="21"></rect>
                <rect id="Rectangle-2-Copy-12" fill="#E96666" x="448" y="108" width="124" height="21"></rect>
                <rect id="Rectangle-2-Copy-6" fill="#5B5B5B" x="466" y="54" width="141" height="21"></rect>
                <rect id="Rectangle-2-Copy-21" fill="#5B5B5B" x="466" y="256" width="141" height="21"></rect>
                <rect id="Rectangle-2-Copy-13" fill="#4A9ED9" x="412" y="162" width="195" height="21"></rect>
                <rect id="Rectangle-2-Copy-3" fill="#4A9EDA" x="578" y="0" width="90" height="21"></rect>
                <rect id="Rectangle-2-Copy-22" fill="#4A9EDA" x="578" y="211" width="90" height="21"></rect>
                <rect id="Rectangle-2-Copy-14" fill="#5B5B5B" x="596" y="108" width="72" height="21"></rect>
                <rect id="Rectangle-2-Copy-7" fill="#92CC6E" x="626" y="54" width="42" height="21"></rect>
                <rect id="Rectangle-2-Copy-23" fill="#92CC6E" x="626" y="256" width="42" height="21"></rect>
                <rect id="Rectangle-2-Copy-15" fill="#92CC6E" x="626" y="162" width="42" height="21"></rect>
            </g>
        </g>
    </g>
</svg>