<svg xmlns="http://www.w3.org/2000/svg" xmlns:xlink="http://www.w3.org/1999/xlink" viewBox="0 0 1284.03 440.86"><defs><style>.cls-1,.cls-48,.cls-50{opacity:0.12;}.cls-1{fill:url(#linear-gradient);}.cls-12,.cls-13,.cls-15,.cls-16,.cls-18,.cls-19,.cls-2,.cls-23,.cls-27,.cls-34,.cls-40,.cls-41,.cls-52,.cls-56,.cls-6,.cls-9{fill:none;}.cls-2,.cls-40{stroke:#edf4f9;}.cls-12,.cls-13,.cls-15,.cls-16,.cls-18,.cls-19,.cls-2,.cls-23,.cls-27,.cls-34,.cls-40,.cls-41,.cls-52,.cls-54,.cls-56,.cls-57,.cls-6,.cls-9{stroke-miterlimit:10;}.cls-12,.cls-15,.cls-18,.cls-19,.cls-2,.cls-23,.cls-27,.cls-41,.cls-52,.cls-6{stroke-width:3px;}.cls-2{stroke-dasharray:65 54 16;}.cls-3,.cls-4{fill:#545454;}.cls-3,.cls-46{opacity:0.1;}.cls-22,.cls-4,.cls-7{opacity:0.05;}.cls-5{fill:#e5c676;}.cls-6{stroke:#f9ecb7;stroke-dasharray:20 38 16;}.cls-8{fill:#4c4c4c;}.cls-9{stroke:#afc9a1;}.cls-13,.cls-16,.cls-9{stroke-width:5px;}.cls-10{fill:#afc9a1;}.cls-11{fill:#91bc7e;}.cls-12,.cls-18{stroke:#b4d3a9;}.cls-12{stroke-dasharray:29 38 16;}.cls-13{stroke:#e88e8e;}.cls-14{fill:#e88e8e;}.cls-15{stroke:#f98787;}.cls-15,.cls-18,.cls-19,.cls-34,.cls-40{stroke-dasharray:43 14 16;}.cls-16{stroke:#ead098;}.cls-17{fill:#ead098;}.cls-19{stroke:#f9a0a0;}.cls-20{fill:#f4abab;}.cls-21{fill:#d6e0e5;}.cls-22{fill:#3d3d3d;}.cls-23,.cls-41{stroke:#c2dffb;}.cls-23{stroke-dasharray:240 54 16;}.cls-24{fill:#9ccbf2;}.cls-25{fill:#e8e8e8;}.cls-26,.cls-54,.cls-57{fill:#fff;}.cls-26,.cls-45{opacity:0.5;}.cls-27{stroke:#000;opacity:0.24;}.cls-28{fill:#fef6f7;}.cls-29{fill:#ef6262;}.cls-30{fill:#f4b36c;}.cls-31{fill:#96bc71;}.cls-32{fill:#f9f9f9;}.cls-33{fill:#c2dffb;}.cls-34{stroke:#e1e9ef;}.cls-35,.cls-47{opacity:0.25;}.cls-36{fill:url(#linear-gradient-2);}.cls-37{fill:url(#linear-gradient-3);}.cls-38{fill:#dcebf4;}.cls-39{fill:#e1e9ef;}.cls-41{stroke-dasharray:36 54 54 4;}.cls-42{fill:#b5daf4;}.cls-43{fill:#b6d5ef;}.cls-44,.cls-45{fill:#7f7f7f;}.cls-46{fill:#eaeaea;}.cls-47{fill:#f7f7f7;}.cls-48{fill:url(#linear-gradient-4);}.cls-49{fill:#efc689;}.cls-50{fill:url(#linear-gradient-5);}.cls-51{fill:#b4d3a9;}.cls-52{stroke:#fff;}.cls-53{fill:#f2f2f2;}.cls-54{stroke:#d6d6d6;}.cls-55{fill:#def2ff;}.cls-56,.cls-57{stroke:#939393;stroke-width:0.6px;}</style><linearGradient id="linear-gradient" x1="1055.53" y1="103.84" x2="1055.53" y2="17.42" gradientUnits="userSpaceOnUse"><stop offset="0" stop-color="#fff"/><stop offset="1"/></linearGradient><linearGradient id="linear-gradient-2" x1="1131.95" y1="226.55" x2="1164.69" y2="226.55" xlink:href="#linear-gradient"/><linearGradient id="linear-gradient-3" x1="1129.04" y1="158.34" x2="1121.54" y2="278.34" gradientUnits="userSpaceOnUse"><stop offset="0" stop-color="#fff"/><stop offset="1" stop-color="#727272"/></linearGradient><linearGradient id="linear-gradient-4" x1="1147.53" y1="161.84" x2="1147.53" y2="75.42" xlink:href="#linear-gradient"/><linearGradient id="linear-gradient-5" x1="1250.53" y1="122.84" x2="1250.53" y2="36.42" xlink:href="#linear-gradient"/></defs><title>background-hero</title><g id="Layer_2" data-name="Layer 2"><g id="Layer_1-2" data-name="Layer 1"><rect class="cls-1" x="1023.53" y="0.5" width="64" height="89"/><polygon class="cls-2" points="159.22 254.89 159.22 331.12 147.47 354.99 148.51 356.14 62.95 356.14 47.22 331.12 47.22 254.89 61.96 250.14 148.84 250.14 149.63 250.18 159.22 254.89"/><path class="cls-3" d="M250.06,353.27c0,3.44-94.77,6.23-127.84,6.23s-59.88-2.79-59.88-6.23S89.15,347,122.22,347,250.06,349.83,250.06,353.27Z"/><path class="cls-4" d="M155.66,353.7c0,2.42-46.54,4.39-62.78,4.39s-29.41-2-29.41-4.39,13.17-4.39,29.41-4.39S155.66,351.27,155.66,353.7Z"/><polygon class="cls-5" points="108.86 252.08 132.29 206.68 134.46 202.49 135.4 201.8 175.23 172.65 176.6 171.64 176.7 171.61 215.02 159.22 181.68 181.81 183.15 180.77 153.03 219.87 156.14 214.99 146.3 265.12 108.86 252.08"/><polygon class="cls-6" points="108.86 251.63 134.02 204.64 136.35 200.3 137.36 199.59 180.14 169.42 181.61 168.38 181.72 168.35 222.87 155.52 187.06 178.9 188.64 177.83 156.29 218.29 159.63 213.24 149.06 265.12 108.86 251.63"/><g class="cls-7"><polygon class="cls-8" points="215.03 159.22 207.36 161.7 178.53 175.77 143.23 210.21 126.51 258.23 128.65 258.98 145.2 211.46 179.85 177.65 208.38 163.72 208.41 163.71 215.03 159.22"/></g><path class="cls-9" d="M136.49,261.16A135,135,0,0,1,161,140.31"/><path class="cls-10" d="M190.37,130.79l-6.93,14.92a12.5,12.5,0,0,1-18.21,5.15l-5.4-3.57.58-1.25-3-2-.92,1-5.4-3.56a12.5,12.5,0,0,1-2.44-18.77l11-12.26,8.39.09,2,3.55,12.23-5.36-.35,13.32,3.62,0Z"/><polygon class="cls-11" points="160.4 146.05 159.82 147.29 156.43 145.05 157.35 144.03 160.4 146.05"/><polygon class="cls-11" points="160.4 146.05 159.82 147.29 156.42 145.06 156.43 145.05 157.35 144.03 160.4 146.05"/><path class="cls-12" d="M194.18,129.45l-7.52,15.82a13.71,13.71,0,0,1-19.76,5.47L161,147l.63-1.32-3.3-2.14-1,1.08-5.86-3.77a13.08,13.08,0,0,1-2.64-19.91l11.92-13,9.1.1,2.16,3.76,13.27-5.68-.38,14.13,3.93,0Z"/><polygon class="cls-12" points="161.67 145.63 161.04 146.95 157.37 144.57 158.36 143.49 161.67 145.63"/><polygon class="cls-12" points="161.67 145.63 161.04 146.95 157.35 144.58 157.37 144.57 158.36 143.49 161.67 145.63"/><path class="cls-13" d="M56,261.6a135.82,135.82,0,0,0,16.21-64.41,135.55,135.55,0,0,0-13.65-58.87"/><path class="cls-14" d="M68,141.65,62,144l-3.79,1.44-6,2.3a12.51,12.51,0,0,1-16.65-9L32,122.6l6.68-7.41,3.55.76,2.57-13.08,10.76,7.92,2.73-3,8.21,1.76,8,14.35A12.5,12.5,0,0,1,68,141.65Z"/><path class="cls-15" d="M69,141.19l-6.21,2.46-3.9,1.54-6.21,2.46A12.78,12.78,0,0,1,35.6,138L32,120.84l6.86-7.91,3.64.81,2.64-14,11,8.46L59,105l8.43,1.88,8.25,15.33C79.49,129.31,76.34,138.29,69,141.19Z"/><path class="cls-16" d="M108.51,261.6c-5.83-10.83,8.12-66.16,8.18-96.83.05-27.25-7.83-50.79-2.56-61.64"/><path class="cls-17" d="M122,109.64H105A12.61,12.61,0,0,1,92.62,95.16L95,78.82l7.06-4.59,3.62,1.85L113,64.85,120,76.16l3-2,8.87,4.54,2.42,16.42A12.62,12.62,0,0,1,122,109.64Z"/><path class="cls-6" d="M122.8,111.14H105.32c-7.85,0-13.87-8.19-12.7-16.3L95.1,76.9l7.25-5.12,3.73,1.89,7.45-12.12,7.25,12.14,3.12-2.12L133,76.45l2.49,18.39C136.66,102.95,130.64,111.14,122.8,111.14Z"/><path class="cls-10" d="M102.78,263.57a55.3,55.3,0,0,1-4.32-5.64c-.68-.94-1.22-1.89-1.84-2.83s-1.12-1.89-1.68-2.84c-1.11-1.89-2.08-3.79-3-5.69s-1.75-3.8-2.55-5.7-1.5-3.81-2.15-5.71-1.26-3.81-1.8-5.72c-.27-1-.55-1.91-.77-2.87s-.5-1.91-.7-2.87-.44-1.91-.62-2.87L82.8,218l0-1.86c-.13-1.88-.24-3.76-.28-5.64s-.06-3.75,0-5.62q.1-5.61.69-11.19.29-2.79.72-5.57c.13-.93.31-1.85.47-2.78s.32-1.85.52-2.77.36-1.85.59-2.77l.66-2.76.73-2.76.81-2.75.73-3.88c.82-1.37,1.63-2.75,2.52-4.11.44-.68.87-1.36,1.33-2s.9-1.35,1.38-2c.94-1.34,1.92-2.66,2.93-4s2.08-2.61,3.17-3.9,2.24-2.56,3.44-3.82c.59-.63,1.2-1.26,1.84-1.87l1.89-1.85,2-1.82c.66-.61,1.4-1.19,2.1-1.79s1.48-1.17,2.22-1.75,1.57-1.14,2.41-1.69c.38.94.7,1.86,1,2.77s.58,1.82.81,2.71.5,1.79.7,2.67l.6,2.64.49,2.6c.17.87.31,1.73.44,2.59.26,1.72.46,3.41.63,5.1s.28,3.35.37,5,.12,3.3.12,4.94c0,.82,0,1.63,0,2.44s0,1.62-.07,2.43c0,1.62-.17,3.21-.29,4.81l.73-3.88.42,2.84.34,2.83.27,2.83c.1.94.13,1.88.2,2.82s.11,1.88.13,2.82.08,1.88.08,2.82q0,2.81-.06,5.62-.18,5.61-.86,11.18c-.24,1.86-.49,3.71-.81,5.56s-.67,3.7-1.06,5.55l0-1.86-.37,2.9c-.12,1-.3,1.94-.44,2.9s-.34,1.94-.52,2.91-.39,1.94-.6,2.91c-.42,1.94-.9,3.88-1.44,5.82s-1.14,3.89-1.79,5.83-1.38,3.9-2.19,5.85-1.65,3.9-2.64,5.86c-.5,1-.95,2-1.5,2.94s-1,2-1.66,2.94A55.3,55.3,0,0,1,102.78,263.57Z"/><path class="cls-18" d="M104.73,263.57a56.76,56.76,0,0,1-4.74-5.72c-.74-1-1.34-1.91-2-2.87s-1.22-1.92-1.84-2.88c-1.22-1.92-2.28-3.84-3.29-5.76s-1.92-3.85-2.79-5.78-1.64-3.86-2.35-5.79-1.38-3.86-2-5.8c-.29-1-.6-1.93-.85-2.9s-.54-1.94-.76-2.91-.49-1.94-.68-2.91l-.6-2.91,0-1.89c-.14-1.91-.26-3.81-.31-5.72s-.06-3.8,0-5.7q.11-5.69.76-11.34.32-2.83.79-5.65c.14-.94.34-1.88.51-2.82s.35-1.88.57-2.81.39-1.87.64-2.81l.72-2.8.8-2.8.89-2.79.81-3.93c.9-1.39,1.79-2.79,2.76-4.16.48-.69.95-1.38,1.46-2.06s1-1.37,1.52-2c1-1.36,2.11-2.7,3.21-4s2.28-2.65,3.48-4,2.46-2.6,3.77-3.87c.65-.64,1.32-1.27,2-1.9l2.07-1.88,2.2-1.84c.73-.62,1.54-1.21,2.3-1.81s1.62-1.18,2.43-1.78,1.72-1.15,2.65-1.71c.42.95.77,1.88,1.11,2.81s.64,1.84.89,2.74.55,1.81.76,2.71l.66,2.67.53,2.64c.19.88.34,1.76.48,2.62.29,1.74.5,3.46.69,5.17s.31,3.4.4,5.08.13,3.35.14,5c0,.83,0,1.65,0,2.48s0,1.64-.08,2.46c-.05,1.64-.19,3.25-.32,4.87l.81-3.93.46,2.88.38,2.87.29,2.87c.11,1,.14,1.91.22,2.86s.12,1.91.15,2.86.08,1.9.08,2.85q0,2.85-.06,5.69-.2,5.68-.94,11.33c-.26,1.88-.54,3.76-.89,5.64s-.74,3.75-1.16,5.62l0-1.89-.4,2.94c-.13,1-.32,2-.48,2.94s-.37,2-.57,2.94-.42,2-.65,2.95c-.46,2-1,3.93-1.57,5.9s-1.25,3.94-2,5.91-1.51,3.95-2.4,5.93-1.81,4-2.9,5.94c-.55,1-1,2-1.65,3s-1.15,2-1.82,3A56,56,0,0,1,104.73,263.57Z"/><g class="cls-7"><polygon class="cls-8" points="115.68 136.97 114.17 138 103.09 172.43 99.72 217.31 99.72 217.36 101.72 262.14 101.72 262.18 101.72 263.64 102.78 263.64 102.79 263.64 103.92 263.64 103.88 262.16 102.48 217.43 105.58 172.86 116.33 138.71 115.68 136.97"/></g><polygon class="cls-19" points="54.08 264.46 64.66 213.11 67.96 222.92 41.66 181.75 42.79 182.75 9.35 152.93 49.14 172.74 50.27 173.74 87.15 205.05 89.86 207.35 90.44 214.85 94.48 267.19 54.08 264.46"/><polygon class="cls-20" points="53.16 264.6 63.52 215.96 66.75 225.25 41 186.24 42.1 187.19 9.35 158.94 48.32 177.7 49.43 178.65 85.55 208.31 88.21 210.5 88.77 217.6 92.72 267.19 53.16 264.6"/><g class="cls-7"><polygon class="cls-8" points="9.35 158.94 17.16 162.7 45.95 181.58 46.05 181.69 71.66 210.11 77.3 216.38 74.97 252.2 74.13 265.01 74.08 265.96 71.81 265.82 71.87 265.01 72.69 252.2 74.98 217.18 71.33 213.14 44.47 183.31 15.93 164.62 15.91 164.6 9.35 158.94"/></g><polygon class="cls-21" points="157.72 258.6 157.72 331.98 145.37 353.74 145.39 353.64 62.52 353.64 48.72 331.98 48.72 258.6 61.56 252.64 145.71 252.64 147.45 253.37 157.72 258.6"/><polygon class="cls-22" points="157.72 258.6 157.72 331.98 145.37 353.99 143.72 347.04 141.2 258.98 147.44 253.14 157.72 258.6"/><path class="cls-4" d="M1018.73,423.7c-.38,12-94.49,19.42-185.75,16.54s-164.92-15-164.54-27,74.66-19.44,165.92-16.55S1019.11,411.68,1018.73,423.7Z"/><rect class="cls-23" x="319.34" y="30.92" width="605.5" height="374.38"/><path class="cls-3" d="M1206.72,420.84c-.15,12-238.2,19.51-469.7,16.7S318,422.72,318.11,410.69,506,391.18,737.54,394,1206.86,408.82,1206.72,420.84Z"/><rect class="cls-24" x="318.08" y="39.19" width="592.3" height="366.1"/><rect class="cls-25" x="341.12" y="58.46" width="546.22" height="337.62"/><circle class="cls-26" cx="614.23" cy="49.13" r="2.41"/><circle class="cls-27" cx="614.23" cy="49.13" r="4.85"/><rect class="cls-28" x="341.12" y="58.46" width="546.22" height="17.91"/><circle class="cls-29" cx="352.3" cy="67.41" r="3.09"/><circle class="cls-30" cx="364.86" cy="67.41" r="3.09"/><circle class="cls-31" cx="377.41" cy="67.41" r="3.09"/><rect class="cls-32" x="341.12" y="76.5" width="546.22" height="320.94"/><rect class="cls-4" x="895.72" y="39.64" width="14" height="366"/><rect class="cls-23" x="250.01" y="400.87" width="681.11" height="34.58"/><rect class="cls-33" x="250.01" y="405.29" width="674.83" height="30.16"/><rect class="cls-4" x="907.72" y="405.64" width="16" height="30"/><path class="cls-34" d="M1178.88,330.33h-29.7V278.55h29.7l4.62,25.89Zm-20.68-8.65h13.08l3.08-17.24-3.08-17.24H1158.2Z"/><g class="cls-35"><path class="cls-36" d="M1131.95,286.67a77.78,77.78,0,0,0,8.25-15.6,60.46,60.46,0,0,0,2.92-34.76c-.56-2.93-1.3-5.87-1.92-8.88a40.22,40.22,0,0,1-1-9.33,23.84,23.84,0,0,1,2.15-9.25,26.82,26.82,0,0,1,5.29-7.78,46.16,46.16,0,0,1,7.19-5.84c2.48-1.74,5.07-3.35,6.91-5.58a9.75,9.75,0,0,0,1.15-1.79,8.35,8.35,0,0,0,.64-2,9.76,9.76,0,0,0-.29-4.27l-.34-1c-.14-.34-.31-.67-.46-1a17.79,17.79,0,0,0-1.1-1.93,26,26,0,0,0-2.87-3.44c-4.26-4.27-9.48-7.52-14.77-10.46,5.39,2.76,10.72,5.82,15.21,10a26.7,26.7,0,0,1,3.07,3.44,18.61,18.61,0,0,1,1.23,2c.18.35.36.69.53,1l.41,1.11a10.77,10.77,0,0,1,.47,4.72,9.49,9.49,0,0,1-.65,2.33,11,11,0,0,1-1.23,2.08c-2,2.55-4.59,4.26-7,6.08a44.51,44.51,0,0,0-6.74,5.85,23.52,23.52,0,0,0-6.31,15.79c0,5.79,2.16,11.52,3.5,17.53a65.93,65.93,0,0,1,1.78,18.55,67.07,67.07,0,0,1-3.65,18.36,82.46,82.46,0,0,1-8.17,16.83Z"/></g><g class="cls-35"><path class="cls-37" d="M1129.18,287.63a94.48,94.48,0,0,1-7.81-6.65,48.86,48.86,0,0,1-6.83-7.92c-.47-.77-1-1.49-1.39-2.31l-.64-1.2-.54-1.27a8.75,8.75,0,0,1-.48-1.31l-.4-1.35a16.82,16.82,0,0,1-.39-2.85,12.75,12.75,0,0,1,0-1.45l.16-1.46a12.81,12.81,0,0,1,.78-2.84,13.9,13.9,0,0,1,3.3-4.71c2.73-2.58,5.88-4.11,8.86-5.62a60.41,60.41,0,0,0,8.48-4.74,12.92,12.92,0,0,0,5.3-7.05,13.13,13.13,0,0,0-.93-8.86,40.27,40.27,0,0,0-5.1-8.23c-2-2.62-4.14-5.16-6.26-7.73-4.21-5.15-8.51-10.45-11.27-16.67a30.11,30.11,0,0,1-2.59-9.79,26.19,26.19,0,0,1,1.27-10c2.13-6.44,6.54-11.79,11.49-16.18-4.82,4.55-9,10-10.9,16.37a25.41,25.41,0,0,0-.93,9.73,29,29,0,0,0,2.79,9.35c2.85,5.92,7.2,11,11.56,16,2.19,2.5,4.43,5,6.56,7.6a42.47,42.47,0,0,1,5.66,8.55,18.23,18.23,0,0,1,1.6,5.1,14.15,14.15,0,0,1-.23,5.49,14,14,0,0,1-2.33,5,19.47,19.47,0,0,1-3.81,3.83,62.94,62.94,0,0,1-8.78,5.29c-2.89,1.57-5.76,3.15-7.82,5.25a10.06,10.06,0,0,0-2.3,3.47,8.87,8.87,0,0,0-.47,2l-.08,1a8.8,8.8,0,0,0,.05,1,12.8,12.8,0,0,0,.35,2.08l.35,1a6,6,0,0,0,.41,1l.46,1,.57,1c.35.67.83,1.29,1.25,1.93a44.48,44.48,0,0,0,6.42,7,89.72,89.72,0,0,0,7.6,6.06Z"/></g><path class="cls-3" d="M1214.47,339.48c0,2.5-35.1,4.52-63.31,4.52s-51.08-2-51.08-4.52,22.87-4.52,51.08-4.52S1214.47,337,1214.47,339.48Z"/><path class="cls-4" d="M1157.27,339.06c0,2.27-17.55,4.11-31.66,4.11s-25.54-1.84-25.54-4.11,11.44-4.11,25.54-4.11S1157.27,336.79,1157.27,339.06Z"/><polygon class="cls-38" points="1153.72 272.64 1153.72 339.48 1147.24 339.97 1125.89 341.64 1100.72 339.48 1100.72 272.64 1124.77 272.64 1153.72 272.64"/><path class="cls-39" d="M1176.72,330.33h-27.54v-50h27.54l4.28,25ZM1157.54,322h12.13l2.85-16.66-2.85-16.66h-12.13Z"/><polygon class="cls-39" points="1153.72 272.64 1153.72 339.48 1147.72 339.97 1147.72 272.64 1153.72 272.64"/><polygon class="cls-40" points="1159.22 271.14 1159.22 338.36 1153.44 338.88 1130.33 340.64 1103.22 338.36 1103.22 271.14 1130.91 271.14 1159.22 271.14"/><polygon class="cls-41" points="1044.35 397.39 1138.8 425.97 1177.83 404.82 1093.68 381.79 1044.35 397.39"/><polygon class="cls-33" points="1044.26 398.95 1137.17 425.87 1175.45 406.3 1092.68 384.58 1044.26 398.95"/><polygon class="cls-42" points="1044.26 398.95 1043.98 406.5 1136.5 433.59 1136.98 425.86 1044.26 398.95"/><polygon class="cls-43" points="1175.45 406.3 1175.67 412.84 1136.5 433.59 1136.85 425.85 1175.45 406.3"/><polygon class="cls-44" points="1161.31 405.42 1129.32 421.23 1126.37 420.36 1118.65 418.08 1115.2 417.06 1112.83 416.36 1056.57 399.76 1095.18 387.42 1102.2 389.33 1104.54 389.97 1107.96 390.9 1115.61 392.98 1161.31 405.42"/><ellipse class="cls-45" cx="1151.92" cy="414.2" rx="1.04" ry="3.02" transform="translate(667.52 1538.41) rotate(-86.47)"/><polygon class="cls-45" points="1070.04 393.4 1071.15 393.8 1082.74 389.88 1081.92 389.41 1070.04 393.4"/><polygon class="cls-46" points="1115.2 417.06 1112.83 416.36 1102.2 389.33 1104.54 389.97 1115.2 417.06"/><polygon class="cls-46" points="1126.37 420.36 1118.65 418.08 1107.96 390.9 1115.61 392.98 1126.37 420.36"/><ellipse class="cls-47" cx="1061.3" cy="367.48" rx="24.23" ry="4.48"/><ellipse class="cls-47" cx="1061.3" cy="367.48" rx="19.81" ry="2.58"/><rect class="cls-20" x="1022.03" width="67" height="67"/><rect class="cls-48" x="1115.53" y="58.5" width="64" height="89"/><rect class="cls-49" x="1114.03" y="58" width="67" height="67"/><rect class="cls-50" x="1218.53" y="19.5" width="64" height="89"/><rect class="cls-51" x="1217.03" y="19" width="67" height="67"/><polygon class="cls-52" points="1056.03 20.86 1060.21 29.32 1069.53 30.67 1062.78 37.25 1064.38 46.54 1056.03 42.15 1047.69 46.54 1049.28 37.25 1042.53 30.67 1051.86 29.32 1056.03 20.86"/><circle class="cls-52" cx="1145.53" cy="90.5" r="14.5"/><rect class="cls-52" x="1238.03" y="40" width="24" height="27"/><rect class="cls-53" x="341.12" y="76.5" width="546.22" height="26"/><rect class="cls-25" x="341.66" y="102.5" width="87.87" height="295"/><rect class="cls-25" x="797.53" y="102.5" width="90" height="295"/><rect class="cls-54" x="460.53" y="141.5" width="312" height="220"/><polygon class="cls-55" points="530.53 298.12 579.63 254.12 627.91 298.5 530.53 298.12"/><polygon class="cls-55" points="597.31 297.88 654.25 225.5 710.24 298.5 597.31 297.88"/><ellipse class="cls-55" cx="552.14" cy="236.5" rx="15.71" ry="16"/><rect class="cls-56" x="531.03" y="218.5" width="179.5" height="80"/><rect class="cls-57" x="530.03" y="217" width="3" height="3"/><rect class="cls-57" x="529.45" y="296.54" width="3" height="3"/><rect class="cls-57" x="529.45" y="256.77" width="3" height="3"/><rect class="cls-57" x="709.33" y="217" width="3" height="3"/><rect class="cls-57" x="708.74" y="296.54" width="3" height="3"/><rect class="cls-57" x="613.02" y="217" width="3" height="3"/><rect class="cls-57" x="612.44" y="296.54" width="3" height="3"/><rect class="cls-57" x="708.74" y="256.77" width="3" height="3"/></g></g></svg>